# xmcd
#
# Track frame offsets: 
#        150
#        9781
#        45905
#        66631
#        81373
#        102691
#        135260
#        160887
#        183061
#        205210
#        227460
#        247160
#        277616
#        315384
#        332648
#
# Disc length: 4709 seconds
#
# Revision: 0
# Processed by: cddbd v1.5.2PL0 Copyright (c) Steve Scherf et al.
# Submitted via: ExactAudioCopy v0.95b3
#
DISCID=bc12630f
DTITLE=Various Artists  - California Jam II [Vinyl Ver]
DYEAR=1900
DGENRE=
TTITLE0=Juando - Santana
TTITLE1=Dance Sister Dance - Santana
TTITLE2=Let It Go - Dave Mason
TTITLE3=We Just Disagree - Dave Mason
TTITLE4=Love Alive - Heart
TTITLE5=Little Queen - Heart
TTITLE6=Free For All - Ted Nugent
TTITLE7=Snakeskin Cowboys - Ted Nugent
TTITLE8=Same Old Song and Dance - Aerosmith
TTITLE9=Draw the Line - Aerosmith
TTITLE10=Chip Away the Stone - Aerosmith
TTITLE11=I'm a King Bee - Mahogany Rush
TTITLE12=Johnny B Goode - Mahogany Rush
TTITLE13=Never Gonna Leave - Rubicon
TTITLE14=Too Hot to Handle - Rubicon
EXTD=
EXTT0=
EXTT1=
EXTT2=
EXTT3=
EXTT4=
EXTT5=
EXTT6=
EXTT7=
EXTT8=
EXTT9=
EXTT10=
EXTT11=
EXTT12=
EXTT13=
EXTT14=
PLAYORDER=
